<?xml version="1.0" standalone="no"?>
<!DOCTYPE svg PUBLIC "-//W3C//DTD SVG 20010904//EN"
 "http://www.w3.org/TR/2001/REC-SVG-20010904/DTD/svg10.dtd">
<svg version="1.0" xmlns="http://www.w3.org/2000/svg"
 width="128.000000pt" height="128.000000pt" viewBox="0 0 128.000000 128.000000"
 preserveAspectRatio="xMidYMid meet">
<metadata>
Created by potrace 1.15, written by Peter Selinger 2001-2017
</metadata>
<g transform="translate(0.000000,128.000000) scale(0.100000,-0.100000)"
fill="#000000" stroke="none">
<path d="M112 1220 c-18 -11 -41 -34 -52 -52 -19 -32 -20 -52 -20 -528 0 -476
1 -496 20 -528 11 -18 34 -41 52 -52 32 -19 52 -20 528 -20 476 0 496 1 528
20 18 11 41 34 52 52 19 32 20 52 20 528 0 476 -1 496 -20 528 -11 18 -34 41
-52 52 -32 19 -52 20 -528 20 -476 0 -496 -1 -528 -20z m497 -361 c23 -12 41
-26 41 -29 0 -3 -13 -19 -29 -34 l-29 -28 -47 16 c-117 40 -224 -56 -200 -181
21 -112 187 -158 259 -72 42 49 35 59 -39 59 l-65 0 0 50 0 50 115 0 115 0 0
-62 c0 -256 -339 -328 -456 -96 -69 137 3 299 156 349 43 14 135 3 179 -22z
m341 -134 l0 -45 45 0 c43 0 45 -1 45 -30 0 -29 -2 -30 -45 -30 l-45 0 0 -40
c0 -38 -2 -40 -30 -40 -28 0 -30 2 -30 39 0 38 -1 39 -45 45 -39 6 -45 10 -45
32 0 22 4 24 45 24 l45 0 0 45 c0 43 1 45 30 45 29 0 30 -2 30 -45z"/>
</g>
</svg>
