<?xml version="1.0" standalone="no"?>
<!DOCTYPE svg PUBLIC "-//W3C//DTD SVG 20010904//EN"
 "http://www.w3.org/TR/2001/REC-SVG-20010904/DTD/svg10.dtd">
<svg version="1.0" xmlns="http://www.w3.org/2000/svg"
 width="225.000000pt" height="225.000000pt" viewBox="0 0 225.000000 225.000000"
 preserveAspectRatio="xMidYMid meet">
<metadata>
Created by potrace 1.15, written by Peter Selinger 2001-2017
</metadata>
<g transform="translate(0.000000,225.000000) scale(0.100000,-0.100000)"
fill="#000000" stroke="none">
<path d="M650 2128 c-343 -65 -630 -124 -637 -130 -19 -15 -19 -1697 0 -1720
8 -11 193 -50 642 -137 347 -66 638 -121 648 -121 9 0 21 9 27 19 7 13 10 374
10 1100 0 968 -2 1081 -16 1095 -8 9 -23 15 -32 15 -9 -1 -298 -55 -642 -121z
m143 -579 l57 -12 0 -89 0 -88 -42 22 c-32 16 -65 23 -128 25 -96 4 -127 -6
-148 -50 -25 -51 -2 -75 138 -144 167 -82 220 -142 220 -249 0 -43 -24 -117
-49 -153 -51 -71 -215 -113 -363 -91 -46 6 -98 18 -115 25 l-33 14 0 91 0 90
38 -24 c60 -39 136 -59 206 -54 84 5 116 26 116 76 0 55 -22 73 -182 147 -139
64 -203 166 -177 284 17 82 83 145 184 177 51 16 204 17 278 3z"/>
<path d="M1430 1814 l0 -166 40 36 c22 20 45 36 50 36 10 0 179 -171 344 -347
l59 -63 -246 0 -247 0 0 -110 0 -110 65 0 65 0 0 -45 0 -45 -65 0 -65 0 0 -65
0 -65 65 0 65 0 0 -45 0 -45 -65 0 -65 0 0 -70 0 -70 65 0 65 0 0 -45 0 -45
-65 0 -65 0 0 -130 0 -130 349 0 350 0 28 24 28 24 0 797 0 797 -28 24 -28 24
-350 0 -349 0 0 -166z m499 -321 l170 -178 -46 -3 c-25 -2 -51 -1 -57 1 -6 3
-79 75 -160 161 -145 153 -148 157 -131 176 10 11 26 20 36 20 9 0 94 -79 188
-177z m81 -448 l0 -45 -180 0 -180 0 0 45 0 45 180 0 180 0 0 -45z m0 -220 l0
-45 -180 0 -180 0 0 45 0 45 180 0 180 0 0 -45z m0 -230 l0 -45 -180 0 -180 0
0 45 0 45 180 0 180 0 0 -45z"/>
</g>
</svg>
