<?xml version="1.0" standalone="no"?>
<!DOCTYPE svg PUBLIC "-//W3C//DTD SVG 20010904//EN"
 "http://www.w3.org/TR/2001/REC-SVG-20010904/DTD/svg10.dtd">
<svg version="1.0" xmlns="http://www.w3.org/2000/svg"
 width="128.000000pt" height="128.000000pt" viewBox="0 0 128.000000 128.000000"
 preserveAspectRatio="xMidYMid meet">
<metadata>
Created by potrace 1.15, written by Peter Selinger 2001-2017
</metadata>
<g transform="translate(0.000000,128.000000) scale(0.100000,-0.100000)"
fill="#000000" stroke="none">
<path d="M112 1220 c-18 -11 -41 -34 -52 -52 -19 -32 -20 -52 -20 -528 0 -476
1 -496 20 -528 11 -18 34 -41 52 -52 32 -19 52 -20 528 -20 476 0 496 1 528
20 18 11 41 34 52 52 19 32 20 52 20 528 0 476 -1 496 -20 528 -11 18 -34 41
-52 52 -32 19 -52 20 -528 20 -476 0 -496 -1 -528 -20z m423 -262 c18 -17 30
-44 44 -103 72 -311 78 -328 118 -307 23 12 95 121 108 162 11 35 8 79 -6 96
-6 8 -29 14 -50 14 -44 0 -46 4 -20 45 58 94 160 138 245 105 124 -47 37 -324
-166 -529 -151 -153 -200 -172 -268 -104 -33 34 -44 61 -104 246 -64 197 -68
207 -92 207 -14 0 -35 -5 -46 -11 -16 -9 -24 -7 -37 6 -15 15 -12 21 47 76 64
61 154 119 184 119 9 0 28 -10 43 -22z"/>
</g>
</svg>
