<?xml version="1.0" standalone="no"?>
<!DOCTYPE svg PUBLIC "-//W3C//DTD SVG 20010904//EN"
 "http://www.w3.org/TR/2001/REC-SVG-20010904/DTD/svg10.dtd">
<svg version="1.0" xmlns="http://www.w3.org/2000/svg"
 width="225.000000pt" height="225.000000pt" viewBox="0 0 225.000000 225.000000"
 preserveAspectRatio="xMidYMid meet">
<metadata>
Created by potrace 1.15, written by Peter Selinger 2001-2017
</metadata>
<g transform="translate(0.000000,225.000000) scale(0.100000,-0.100000)"
fill="#000000" stroke="none">
<path d="M660 1865 c-45 -20 -592 -565 -628 -625 -38 -64 -38 -156 0 -220 14
-25 158 -176 320 -336 322 -320 321 -319 434 -312 50 3 73 10 106 34 52 35 98
119 98 177 0 94 -11 109 -234 334 l-210 213 205 207 c183 185 207 213 219 256
26 96 -12 202 -92 255 -51 33 -161 42 -218 17z m144 -167 c9 -12 16 -31 16
-42 0 -13 -87 -107 -235 -256 -217 -217 -235 -238 -235 -270 0 -32 19 -54 240
-275 156 -156 240 -247 240 -260 0 -36 -28 -65 -63 -65 -29 0 -62 30 -320 288
-218 218 -287 294 -287 312 0 18 68 93 282 307 253 254 286 283 315 283 22 0
37 -7 47 -22z"/>
<path d="M1392 1859 c-71 -36 -121 -119 -121 -204 -1 -78 29 -119 237 -328
l197 -197 -202 -203 c-216 -216 -242 -253 -243 -338 0 -64 43 -146 98 -183 33
-24 56 -31 106 -34 113 -7 111 -9 439 317 166 164 308 314 320 336 29 55 29
155 0 210 -31 57 -588 610 -635 630 -54 22 -144 19 -196 -6z m416 -422 c214
-214 282 -289 282 -307 0 -18 -69 -94 -287 -312 -258 -258 -291 -288 -320
-288 -35 0 -63 29 -63 64 0 13 89 109 242 262 212 213 241 247 241 274 0 27
-29 61 -236 269 -166 165 -237 244 -237 259 0 30 34 62 68 62 23 0 76 -48 310
-283z"/>
</g>
</svg>
